<?xml version="1.0" encoding="UTF-8" standalone="no"?>
<svg
   xmlns:dc="http://purl.org/dc/elements/1.1/"
   xmlns:cc="http://creativecommons.org/ns#"
   xmlns:rdf="http://www.w3.org/1999/02/22-rdf-syntax-ns#"
   xmlns:svg="http://www.w3.org/2000/svg"
   xmlns="http://www.w3.org/2000/svg"
   xmlns:sodipodi="http://sodipodi.sourceforge.net/DTD/sodipodi-0.dtd"
   xmlns:inkscape="http://www.inkscape.org/namespaces/inkscape"
   version="1.0"
   width="239.36739pt"
   height="251.46175pt"
   viewBox="0 0 239.36739 251.46175"
   preserveAspectRatio="xMidYMid meet"
   id="svg195"
   sodipodi:docname="goofy-hat.svg"
   inkscape:version="0.92.2 5c3e80d, 2017-08-06">
  <defs
     id="defs199" />
  <sodipodi:namedview
     pagecolor="#ffffff"
     bordercolor="#666666"
     borderopacity="1"
     objecttolerance="10"
     gridtolerance="10"
     guidetolerance="10"
     inkscape:pageopacity="0"
     inkscape:pageshadow="2"
     inkscape:window-width="1751"
     inkscape:window-height="1132"
     id="namedview197"
     showgrid="false"
     inkscape:zoom="1.4142136"
     inkscape:cx="37.973651"
     inkscape:cy="206.75393"
     inkscape:window-x="0"
     inkscape:window-y="0"
     inkscape:window-maximized="0"
     inkscape:current-layer="svg195"
     fit-margin-top="0"
     fit-margin-left="0"
     fit-margin-right="0"
     fit-margin-bottom="0" />
  <metadata
     id="metadata189">
Created by potrace 1.15, written by Peter Selinger 2001-2017
<rdf:RDF>
  <cc:Work
     rdf:about="">
    <dc:format>image/svg+xml</dc:format>
    <dc:type
       rdf:resource="http://purl.org/dc/dcmitype/StillImage" />
    <dc:title></dc:title>
  </cc:Work>
</rdf:RDF>
</metadata>
  <path
     style="fill:#90b358;fill-opacity:1;fill-rule:evenodd;stroke:#000000;stroke-width:0.75px;stroke-linecap:butt;stroke-linejoin:miter;stroke-opacity:1"
     d="m 88.805618,168.45943 -16.97056,14.31891 -4.77297,13.25826 9.15695,17.61141 v 0 l 20.14835,30.80563 120.778112,-0.15701 2.65165,-45.60839 15.9099,-27.04682 -1.59099,-24.3952 -14.31891,-12.72791 -28.92976,-7.96467 -78.72725,51.98206 z"
     id="path217"
     inkscape:connector-curvature="0" />
  <path
     d="m 138.06739,9.4536447 c 11.5,4.5999993 19.1,11.5999993 23.9,21.9999993 6.1,13.1 7.7,27.1 4.4,39.5 -3.2,12.2 -14.2,30.699996 -25.3,42.199996 -2,2.1 -3.1,3.8 -2.5,3.8 2,0 12.7,-7.8 20.1,-14.6 4,-3.599996 7.4,-6.499996 7.5,-6.299996 1.3,1.9 4.3,6.999996 8.7,14.799996 3.6,6.6 5,10 4.6,11.7 -1,3.7 -9.8,12.6 -19.3,19.3 -17.1,12.2 -51.2,27.2 -62.700002,27.5 -4.9,0.1 -4.9,0.1 -6.4,-4.1 l -1.6,-4.3 3.4,-3.5 c 1.9,-1.9 3.1,-3.5 2.7,-3.5 -0.3,0 -7.81231,4.41682 -12.11231,6.31682 -38.765257,21.72008 -105.849761,-10.70954 -67.27868,-56.73814 5.7,-6.199996 20.09099,-13.078676 28.19099,-16.578676 7.8,-3.4 23.8,-8.7 30.2,-10 10,-2 13.4,-3.1 12.8,-4.1 -0.4,-0.5 -3.3,-0.8 -6.6,-0.8 -3.3,0.1 -6.2,0 -6.4,-0.3 -0.7,-0.6 8.1,-26.1 11,-31.9 7.3,-14.5 17.500002,-26.2 26.300002,-30.0999993 9,-4 16.7,-4.1 26.4,-0.3 z"
     id="path213"
     inkscape:connector-curvature="0"
     sodipodi:nodetypes="ccccscccccccccscccccccccc"
     style="fill:#90b357;fill-opacity:1;stroke:#90b357;stroke-width:9.09975014;stroke-opacity:1;stroke-miterlimit:4;stroke-dasharray:none" />
  <path
     style="fill:#000000;stroke:none;stroke-width:0.1"
     sodipodi:nodetypes="ccccccccccscccccccccccccscccccccccccccscccccccccscscccccccccccccccsssccccscccscccsccssccccscccccc"
     inkscape:connector-curvature="0"
     id="path191"
     d="m 114.16739,1.4536437 c -18.100002,5.6 -34.000002,26.8000003 -43.300002,57.9000003 l -3.7,12 -6.9,2.7 c -3.8,1.5 -11.6,4.6 -17.3,6.8 -12.3,4.9 -22.2,11.2 -28.7,18.4 C 2.7673884,112.05364 -0.53261156,120.05364 0.06738844,132.95364 c 0.6,10.7 3.09999996,16.4 10.99999956,24.3 9.9,10 26.1,16.1 42.8,16 8.3,0 10.8,-0.5 19.8,-3.6 5.6,-2 10.2,-3.2 10.2,-2.7 0,0.5 -1.9,2.2 -4.3,3.9 -10.1,6.9 -15.6,15.9 -15.7,25.4 0,8.6 5.35165,14.19437 12.35165,17.39437 5.90968,11.58132 7.82034,22.5027 13.44835,32.90563 2,2.7 4,4.3 6.1,4.7 1.7,0.4 15.200002,0.2 30.000002,-0.4 14.9,-0.5 42.1,-1 60.5,-1.2 28.8,-0.2 33.7,-0.4 34.2,-1.7 0.3,-0.8 0.8,-5 1.1,-9.3 1.23009,-11.49915 0.75975,-25.91842 0.3,-39.1 0,-0.4 2.5,-3.6 5.6,-7.3 3.1,-3.6 7.1,-9.6 8.8,-13.2 2.8,-6 3.1,-7.5 3.1,-16.1 -0.1,-8.4 -0.4,-10.1 -3,-15.3 -6.2,-12.4 -16,-18.2 -33.9,-19.9 l -11.6,-1.2 -8.2,-15.5 c -4.6,-8.5 -9.9,-17.199996 -11.8,-19.199996 l -3.5,-3.7 1.8,-4.4 c 7.8,-18.2 7.4,-36.8 -1.3,-55.5 -4.6,-9.8 -10.7,-16.3 -20,-21.5000003 -11.8,-6.49999999 -23.8,-8.4 -33.7,-5.3 z m 23.9,8 c 11.5,4.6000003 19.1,11.6000003 23.9,22.0000003 6.1,13.1 7.7,27.1 4.4,39.5 -3.2,12.2 -14.2,30.699996 -25.3,42.199996 -2,2.1 -3.1,3.8 -2.5,3.8 2,0 12.7,-7.8 20.1,-14.6 4,-3.599996 7.4,-6.499996 7.5,-6.299996 1.3,1.9 4.3,6.999996 8.7,14.799996 3.6,6.6 5,10 4.6,11.7 -1,3.7 -9.8,12.6 -19.3,19.3 -17.1,12.2 -51.2,27.2 -62.700002,27.5 -4.9,0.1 -4.9,0.1 -6.4,-4.1 l -1.6,-4.3 3.4,-3.5 c 1.9,-1.9 3.1,-3.5 2.7,-3.5 -0.3,0 -4.1,1.5 -8.4,3.4 -12.8,5.6 -26.7,9.6 -33.2,9.6 -3.2,0 -9.3,-0.9 -13.7,-2 -15.9,-4 -26.2,-11.3 -31.2999996,-22 -5.5,-11.7 -2.3,-25.1 8.7999996,-37.3 5.7,-6.199996 18.5,-15.199996 26.6,-18.699996 7.8,-3.4 23.8,-8.7 30.2,-10 10,-2 13.4,-3.1 12.8,-4.1 -0.4,-0.5 -3.3,-0.8 -6.6,-0.8 -3.3,0.1 -6.2,0 -6.4,-0.3 -0.7,-0.6 8.1,-26.1 11,-31.9 7.3,-14.5 17.500002,-26.2 26.300002,-30.1000003 9,-4 16.7,-4.1 26.4,-0.3 z m 76.9,127.3999963 c 7,2.7 12.4,7.8 15.6,14.9 2.1,4.5 2.5,6.5 2.1,12.5 -0.6,13.7 -9.2,25.5 -27,37.4 -5.4,3.6 -9.7,6.7 -9.5,6.9 0.2,0.2 4.5,-1 9.6,-2.7 5.1,-1.7 9.5,-2.8 9.9,-2.4 0.9,0.9 0.8,29 -0.1,33.7 -0.7,3.2 -1.2,3.8 -4,4.2 -4.8,0.8 -102.2,3.8 -109.2,3.4 l -6.000002,-0.3 -3.3,-5.5 c -5.7,-9.5 -9.2,-21.1 -7.3,-23.9 0.8,-1.2 1.6,-1.3 5.3,-0.2 2.4,0.7 5.1,1.5 6.1,1.7 1.1,0.3 1.7,0 1.7,-0.9 0,-1 -1.9,-1.9 -5.2,-2.7 -14.2,-3.4 -22.2,-8.4 -23.4,-14.6 -1.3,-7.2 4.9,-16.9 15.3,-23.5 2.6,-1.6 5.2,-2.9 5.7,-2.9 0.6,0 1.9,2.6 2.9,5.8 1,3.1 2,6.3 2.3,6.9 0.4,0.9 -0.6,1.3 -3.5,1.3 -2.3,0 -4.1,0.4 -4.1,0.9 0,2.3 7.6,7.2 14.300002,9.3 6.3,2 9.2,2.3 24.2,2.3 14.7,-0.1 18.5,-0.4 28,-2.7 22.3,-5.2 51.4,-18.2 60.4,-26.8 2.9,-2.8 5.1,-5.8 5.1,-6.9 0,-1.9 -0.4,-1.8 -4.6,1.4 -7.2,5.5 -8.3,5.1 -12.8,-5.8 -2.1,-5 -5.6,-12.5 -7.7,-16.6 l -4,-7.4 8.8,0.5 c 5.4,0.4 11,1.4 14.4,2.7 z" />
</svg>
