<?xml version="1.0" encoding="UTF-8" standalone="no"?>
<svg
   xmlns:dc="http://purl.org/dc/elements/1.1/"
   xmlns:cc="http://creativecommons.org/ns#"
   xmlns:rdf="http://www.w3.org/1999/02/22-rdf-syntax-ns#"
   xmlns:svg="http://www.w3.org/2000/svg"
   xmlns="http://www.w3.org/2000/svg"
   xmlns:sodipodi="http://sodipodi.sourceforge.net/DTD/sodipodi-0.dtd"
   xmlns:inkscape="http://www.inkscape.org/namespaces/inkscape"
   width="144.9445"
   height="145.51984"
   enable-background="new 0 0 1000 1000"
   version="1.1"
   viewBox="0 0 144.9453 145.5161"
   xml:space="preserve"
   id="svg3722"
   sodipodi:docname="logopropeller.svg"
   inkscape:version="0.92.2 5c3e80d, 2017-08-06"><defs
     id="defs3726" /><sodipodi:namedview
     pagecolor="#ffffff"
     bordercolor="#666666"
     borderopacity="1"
     objecttolerance="10"
     gridtolerance="10"
     guidetolerance="10"
     inkscape:pageopacity="0"
     inkscape:pageshadow="2"
     inkscape:window-width="1171"
     inkscape:window-height="633"
     id="namedview3724"
     showgrid="false"
     inkscape:zoom="0.50161789"
     inkscape:cx="263.29433"
     inkscape:cy="72.76012"
     inkscape:window-x="649"
     inkscape:window-y="215"
     inkscape:window-maximized="0"
     inkscape:current-layer="text3712"
     fit-margin-top="0"
     fit-margin-left="0"
     fit-margin-right="0"
     fit-margin-bottom="0" /><metadata
     id="metadata3708"> Svg Vector Icons : http://www.onlinewebfonts.com/icon <rdf:RDF><cc:Work
     rdf:about=""><dc:format>image/svg+xml</dc:format><dc:type
       rdf:resource="http://purl.org/dc/dcmitype/StillImage" /><dc:title></dc:title></cc:Work></rdf:RDF></metadata><g
     aria-label="propeller"
     style="font-size:73.70700073px;line-height:125%;font-family:sans-serif;letter-spacing:0px;word-spacing:0px;fill:#00aad4;stroke-width:1px"
     id="text3712"
     transform="translate(-59.660982,-16.490375)" /><path
     d="m 103.34902,4.9076288 c -1.2018,0.02813 -2.3972,0.14176 -3.579802,0.32836 5.211002,5.1439002 8.446702,12.2910002 8.446702,20.1820002 0,2.7009 -0.92953,7.2764 -2.279,12.712 -1.2948,5.2152 -2.9952,11.1 -4.6929,16.411 2.4615,2.7766 4.3887,6.0319 5.6351,9.6209 0.77293,0.16878 1.5697,0.35392 2.3582,0.53323 7.7588,-7.2236 15.91,-15.636 18.019,-19.288 7.4587,-12.919 3.0608,-29.447 -9.8393,-36.8950002 -4.4344,-2.5602 -9.2947,-3.7149 -14.068,-3.6031 z M 27.000018,45.648629 c -14.89,0.03204 -26.97500009,12.147 -27.000000087765,27.072 C -0.00728209,79.123429 2.2171179,85.001624 5.9326179,89.628599 c 1.7683,-7.24347 6.3518001,-13.78197 13.2840001,-17.80497 2.2935,-1.3285 6.5976,-2.7766 11.848,-4.2946 5.0377,-1.4564 10.856,-2.9017 16.236,-4.0821 1.2798,-3.7153 3.29,-7.0723 5.8709,-9.9229 -0.20245,-0.63581 -0.40232,-1.2981 -0.60404,-1.9477 -10.093,-3.0961 -21.374,-5.9333 -25.568,-5.9274 z m 54.494,59.850961 c -2.0366,0.46174 -4.1387,0.73961 -6.3176,0.73961 -2.0861,0 -4.1141,-0.2626 -6.078,-0.68836 -0.29096,0.32226 -0.59918,0.65366 -0.89549,0.97909 2.2718,10.309 5.3913,21.861 7.4887,25.503 7.4364,12.906 23.932,17.326 36.845002,9.8423 5.5432,-3.2067 9.5217,-8.0794 11.677,-13.616 -7.0965,2.0167 -14.966,1.2753 -21.847,-2.7054 -2.273,-1.3156 -5.615702,-4.3295 -9.484602,-8.1198 -3.7038,-3.6286 -7.7717,-7.9236 -11.388,-11.935 z"
     id="path3714"
     style="fill:#ffffff"
     inkscape:connector-curvature="0" /><g
     transform="matrix(0.32402,0,0,0.32479,321.87902,-34.431371)"
     id="g3720"
     style="fill:#ffffff"><path
       d="m -587.67,338.01 c -12.534,-7.2113 -54.257,-18.672 -88.596,-26.055 -3.8632,-12.148 -10.388,-23.093 -18.887,-32.15 10.86,-33.567 21.977,-75.976 21.977,-90.571 0,-45.929 -37.259,-83.231 -83.231,-83.231 -45.972,0 -83.231,37.259 -83.231,83.231 0,14.466 10.989,56.403 21.763,89.841 -8.8854,9.2717 -15.667,20.518 -19.617,33.052 -34.168,7.383 -75.247,18.672 -87.652,25.841 -39.748,23.008 -53.355,73.916 -30.391,113.75 22.965,39.791 73.873,53.441 113.66,30.476 12.148,-6.9967 41.894,-37.001 64.816,-62.455 6.4816,1.5882 13.264,2.4467 20.217,2.4467 7.2542,0 14.251,-0.90142 20.947,-2.6184 22.922,25.497 52.797,55.587 64.988,62.627 39.791,22.965 90.7,9.3576 113.66,-30.476 23.008,-39.834 9.4005,-90.743 -30.434,-113.71 z m -169.12,47.088 c -26.227,0 -47.517,-21.248 -47.517,-47.517 0,-26.227 21.248,-47.517 47.517,-47.517 26.227,0 47.517,21.248 47.517,47.517 -0.0429,26.27 -21.291,47.517 -47.517,47.517 z"
       id="path3716"
       style="fill:#ffffff"
       inkscape:connector-curvature="0" /><circle
       cx="-756.79999"
       cy="337.62"
       r="23.909"
       id="circle3718"
       style="fill:#ffffff" /></g></svg>